<svg xmlns="http://www.w3.org/2000/svg" enable-background="new 0 0 32 32" viewBox="0 0 32 32"><path d="M24.707,15.293l-5.6464-5.6464c-0.1953-0.1953-0.5118-0.1953-0.7071,0l-0.707,0.707c-0.1953,0.1953-0.1953,0.5118,0,0.7071L21.5859,15H7.5C7.2239,15,7,15.2239,7,15.5v1C7,16.7761,7.2239,17,7.5,17h14.0859l-3.9394,3.9394c-0.1953,0.1953-0.1953,0.5118,0,0.7071l0.707,0.707c0.1953,0.1953,0.5118,0.1953,0.7071,0l5.6464-5.6464C25.0975,16.3165,25.0975,15.6835,24.707,15.293z"/><path d="M16,2C8.2803,2,2,8.2803,2,16s6.2803,14,14,14s14-6.2803,14-14S23.7197,2,16,2z M16,28C9.3828,28,4,22.6172,4,16S9.3828,4,16,4s12,5.3828,12,12S22.6172,28,16,28z"/></svg>