<svg xmlns="http://www.w3.org/2000/svg" enable-background="new 0 0 100 100" viewBox="0 0 100 100"><polygon fill="#077555" points="90.48 45.24 85.71 45.24 80.95 45.24 76.19 45.24 71.43 45.24 66.67 45.24 61.9 45.24 57.14 45.24 52.38 45.24 47.62 45.24 42.86 45.24 38.1 45.24 38.1 50 38.1 54.76 42.86 54.76 47.62 54.76 52.38 54.76 57.14 54.76 61.9 54.76 66.67 54.76 71.43 54.76 76.19 54.76 80.95 54.76 85.71 54.76 90.48 54.76 95.24 54.76 95.24 50 95.24 45.24"/><polygon fill="#fab426" points="90.48 35.71 85.71 35.71 80.95 35.71 76.19 35.71 71.43 35.71 66.67 35.71 61.9 35.71 57.14 35.71 52.38 35.71 47.62 35.71 42.86 35.71 38.1 35.71 38.1 40.48 38.1 45.24 42.86 45.24 47.62 45.24 52.38 45.24 57.14 45.24 61.9 45.24 66.67 45.24 71.43 45.24 76.19 45.24 80.95 45.24 85.71 45.24 90.48 45.24 95.24 45.24 95.24 40.48 95.24 35.71"/><polygon fill="#077555" points="90.48 21.43 85.71 21.43 80.95 21.43 76.19 21.43 71.43 21.43 66.67 21.43 61.9 21.43 57.14 21.43 52.38 21.43 47.62 21.43 42.86 21.43 38.1 21.43 38.1 26.19 38.1 30.95 38.1 35.71 42.86 35.71 47.62 35.71 52.38 35.71 57.14 35.71 61.9 35.71 66.67 35.71 71.43 35.71 76.19 35.71 80.95 35.71 85.71 35.71 90.48 35.71 95.24 35.71 95.24 30.95 95.24 26.19 95.24 21.43"/><polygon fill="#f2f2f2" points="23.81 35.71 23.81 30.95 19.05 30.95 19.05 35.71 14.29 35.71 14.29 40.48 14.29 45.24 19.05 45.24 23.81 45.24 28.57 45.24 28.57 40.48 28.57 35.71"/><polygon fill="#077555" points="90.48 64.29 85.71 64.29 80.95 64.29 76.19 64.29 71.43 64.29 66.67 64.29 61.9 64.29 57.14 64.29 52.38 64.29 47.62 64.29 42.86 64.29 38.1 64.29 33.33 64.29 28.57 64.29 23.81 64.29 19.05 64.29 14.29 64.29 9.52 64.29 4.76 64.29 4.76 69.05 4.76 73.81 4.76 78.57 9.52 78.57 14.29 78.57 19.05 78.57 23.81 78.57 28.57 78.57 33.33 78.57 38.1 78.57 42.86 78.57 47.62 78.57 52.38 78.57 57.14 78.57 61.9 78.57 66.67 78.57 71.43 78.57 76.19 78.57 80.95 78.57 85.71 78.57 90.48 78.57 95.24 78.57 95.24 73.81 95.24 69.05 95.24 64.29"/><polygon fill="#fab426" points="90.48 54.76 85.71 54.76 80.95 54.76 76.19 54.76 71.43 54.76 66.67 54.76 61.9 54.76 57.14 54.76 52.38 54.76 47.62 54.76 42.86 54.76 38.1 54.76 33.33 54.76 28.57 54.76 23.81 54.76 19.05 54.76 14.29 54.76 9.52 54.76 4.76 54.76 4.76 59.52 4.76 64.29 9.52 64.29 14.29 64.29 19.05 64.29 23.81 64.29 28.57 64.29 33.33 64.29 38.1 64.29 42.86 64.29 47.62 64.29 52.38 64.29 57.14 64.29 61.9 64.29 66.67 64.29 71.43 64.29 76.19 64.29 80.95 64.29 85.71 64.29 90.48 64.29 95.24 64.29 95.24 59.52 95.24 54.76"/><path fill="#ca2843" d="M33.33,21.43h-4.76h-4.76h-4.76h-4.76H9.52H4.76v4.76v4.76v4.76v4.77v4.76V50v4.76h4.76h4.77h4.76h4.76h4.76
		h4.76h4.77V50v-4.76v-4.76v-4.77v-4.76v-4.76v-4.76H33.33z M28.57,40.48v4.76h-4.76h-4.76h-4.76v-4.76v-4.77h4.76v-4.76h4.76v4.76
		h4.76V40.48z"/></svg>